<svg height="512" viewBox="0 0 512 512" width="512" xmlns="http://www.w3.org/2000/svg"><g id="flat"><path d="m360 16h16v240h-16z" fill="#4799cf"/><path d="m136 88h96v40h-96z" fill="#da922a"/><path d="m320 256h96v40h-96z" fill="#b94137"/><path d="m176 16h16v72h-16z" fill="#4799cf"/><path d="m176 72h16v16h-16z" fill="#428dc5"/><path d="m360 240h16v16h-16z" fill="#428dc5"/><circle cx="184" cy="216" fill="#fbb540" r="104"/><path d="m191.99 295.561a8 8 0 0 1 -.869-15.952 63.7 63.7 0 0 0 14.213-3.249 8 8 0 1 1 5.332 15.085 79.646 79.646 0 0 1 -17.787 4.067 8.093 8.093 0 0 1 -.889.049z" fill="#ffd78e"/><path d="m232 277.667a8 8 0 0 1 -5.338-13.962 64.019 64.019 0 0 0 10.563-83.254 8 8 0 1 1 13.294-8.9 80.017 80.017 0 0 1 -13.187 104.079 7.971 7.971 0 0 1 -5.332 2.037z" fill="#ffd78e"/><circle cx="368" cy="384" fill="#dc4d41" r="104"/><path d="m375.99 463.561a8 8 0 0 1 -.869-15.952 63.7 63.7 0 0 0 14.213-3.249 8 8 0 1 1 5.332 15.085 79.646 79.646 0 0 1 -17.787 4.067 8.093 8.093 0 0 1 -.889.049z" fill="#ff5a4b"/><path d="m416 445.667a8 8 0 0 1 -5.338-13.962 64.019 64.019 0 0 0 10.563-83.254 8 8 0 1 1 13.294-8.9 80.017 80.017 0 0 1 -13.187 104.079 7.971 7.971 0 0 1 -5.332 2.037z" fill="#ff5a4b"/><g fill="#fd9226"><path d="m56 304h16v16h-16z"/><path d="m32 328h16v16h-16z"/><path d="m80 328h16v16h-16z"/><path d="m56 352h16v16h-16z"/><path d="m280 48h16v16h-16z"/><path d="m264 64h16v16h-16z"/><path d="m296 64h16v16h-16z"/><path d="m280 80h16v16h-16z"/></g><path d="m448 112-4.686 9.373a61.074 61.074 0 0 1 -35.314 30.627 61.074 61.074 0 0 1 35.314 30.627l4.686 9.373 4.686-9.373a61.074 61.074 0 0 1 35.314-30.627 61.074 61.074 0 0 1 -35.314-30.627z" fill="#fbb540"/><path d="m176 384-4.686 9.373a61.074 61.074 0 0 1 -35.314 30.627 61.074 61.074 0 0 1 35.314 30.627l4.686 9.373 4.686-9.373a61.074 61.074 0 0 1 35.314-30.627 61.074 61.074 0 0 1 -35.314-30.627z" fill="#fbb540"/></g></svg>