<?xml version="1.0" encoding="UTF-8"?>
<svg width="612px" height="339px" viewBox="0 0 612 339" version="1.1" xmlns="http://www.w3.org/2000/svg" xmlns:xlink="http://www.w3.org/1999/xlink">
    <!-- Generator: Sketch 52.6 (67491) - http://www.bohemiancoding.com/sketch -->
    <title>Group</title>
    <desc>Created with Sketch.</desc>
    <g id="Page-1" stroke="none" stroke-width="1" fill="none" fill-rule="evenodd">
        <g id="Group">
            <path d="M117.5,179.189 C205.671,147.235 211.324,101.063 254.539,75.219 C297.754,49.375 348.526,68.8 373.588,115.712 C398.651,162.624 428.265,132.788 479.962,146.585 C531.658,160.383 536.155,188.538 552.22,237.514 C568.285,286.489 542.934,337.529 542.934,337.529 L97.872,337.529 C97.872,337.529 29.329,211.143 117.5,179.189" id="Fill-2" fill="#FFD0CE"></path>
            <path d="M135.766,286.489 L68.794,286.489 C67.168,286.489 65.85,285.171 65.85,283.544 L65.85,277.309 C65.85,275.682 67.168,274.364 68.794,274.364 L135.766,274.364 C137.392,274.364 138.71,275.682 138.71,277.309 L138.71,283.544 C138.71,285.171 137.392,286.489 135.766,286.489" id="Fill-3" fill="#E88476"></path>
            <path d="M102.28,286.489 L70.977,286.489 L70.977,306.931 C70.977,318.008 74.657,328.771 81.439,337.529 L123.121,337.529 C129.903,328.771 133.583,318.008 133.583,306.931 L133.583,286.489 L102.28,286.489" id="Fill-4" fill="#E88476"></path>
            <polyline id="Fill-5" fill="#D37163" points="133.583 296.42 70.977 300.577 70.977 286.489 133.583 286.489 133.583 296.42"></polyline>
            <path d="M81.236,274.364 C81.236,274.364 75.347,269.283 75.693,261.315 C76.039,253.347 80.875,248.151 78.457,239.49 C76.039,230.83 70.497,224.217 71.189,216.265 C71.882,208.312 79.042,205.946 77.887,195.524 C76.732,185.101 67.725,170.205 72.229,157.733 C76.732,145.262 85.047,150.592 83.314,137.014 C81.582,123.437 94.054,104.43 109.989,114.453 C125.925,124.476 116.225,142.753 117.957,147.645 C119.689,152.537 128.35,152.332 128.35,162.827 C128.35,173.323 115.879,188.425 118.65,197.676 C121.421,206.926 128.004,209 128.35,219.395 C128.696,229.79 125.579,233.255 124.193,241.049 C122.807,248.844 129.389,254.156 129.389,262.47 C129.389,267.494 125.232,274.364 125.232,274.364 L81.236,274.364" id="Fill-6" fill="#5AA65C"></path>
            <path d="M556.52,286.489 L489.549,286.489 C487.923,286.489 486.604,285.171 486.604,283.544 L486.604,277.309 C486.604,275.682 487.923,274.364 489.549,274.364 L556.52,274.364 C558.147,274.364 559.465,275.682 559.465,277.309 L559.465,283.544 C559.465,285.171 558.147,286.489 556.52,286.489" id="Fill-7" fill="#E88476"></path>
            <path d="M523.035,286.489 L491.732,286.489 L491.732,306.931 C491.732,318.008 495.412,328.771 502.194,337.529 L543.876,337.529 C550.658,328.771 554.338,318.008 554.338,306.931 L554.338,286.489 L523.035,286.489" id="Fill-8" fill="#E88476"></path>
            <polyline id="Fill-9" fill="#D37163" points="554.338 296.42 491.732 300.577 491.732 286.489 554.338 286.489 554.338 296.42"></polyline>
            <path d="M541.982,274.364 C541.982,274.364 547.871,269.283 547.525,261.315 C547.178,253.347 542.343,248.151 544.761,239.49 C547.178,230.83 552.721,224.217 552.028,216.265 C551.335,208.312 544.176,205.946 545.331,195.524 C546.485,185.101 555.493,170.205 550.989,157.733 C546.485,145.262 538.171,150.592 539.903,137.014 C541.635,123.437 529.164,104.43 513.228,114.453 C497.293,124.476 506.993,142.753 505.261,147.645 C503.528,152.537 494.868,152.332 494.868,162.827 C494.868,173.323 507.339,188.425 504.568,197.676 C501.796,206.926 495.214,209 494.868,219.395 C494.521,229.79 497.639,233.255 499.025,241.049 C500.411,248.844 493.828,254.156 493.828,262.47 C493.829,267.494 497.986,274.364 497.986,274.364 L541.982,274.364" id="Fill-10" fill="#5AA65C"></path>
            <path d="M391.425,94.222 C391.425,94.222 395.582,86.6 392.002,73.667 C388.423,60.734 378.145,55.537 374.45,55.422 C370.755,55.306 366.251,58.886 366.251,58.886 C366.251,58.886 358.283,55.306 350.893,61.888 C343.503,68.471 340.096,80.48 339.576,91.219 C339.057,101.959 339.807,106.754 336.805,110.015 C333.803,113.275 332.186,114.636 332.763,115.746 C333.341,116.855 335.881,117.754 338.422,115.746 C340.962,113.737 344.181,108.772 344.181,108.772 C344.181,108.772 346.129,113.363 344.181,117.303 C342.232,121.243 340.154,124.604 340.269,125.81 C340.385,127.017 354.242,130.621 365.558,124.373 C376.875,118.125 391.425,94.222 391.425,94.222" id="Fill-11" fill="#33345A"></path>
            <path d="M361.155,102.305 C361.155,102.305 357.504,102.305 357.764,106.376 C357.926,108.919 363.949,112.33 367.395,107.794 C370.841,103.258 361.155,102.305 361.155,102.305" id="Fill-12" fill="#F3B799"></path>
            <path d="M385.251,81.901 C385.251,81.901 385.887,78.307 389.85,79.272 C392.326,79.875 394.635,86.4 389.568,89.003 C384.5,91.606 385.251,81.901 385.251,81.901" id="Fill-13" fill="#F3B799"></path>
            <path d="M368.099,106.221 C368.099,106.221 359.554,124.997 359.092,130.684 C358.63,136.37 374.566,170.32 374.566,170.32 L392.189,190.219 L387.509,237.989 L461.293,237.989 C461.293,237.989 444.922,179.037 444.922,160.706 C444.922,142.375 427.173,102.921 427.173,102.921 L382.88,89.718 L368.099,106.221" id="Fill-14" fill="#619AC6"></path>
            <path d="M412.225,167.26 C412.225,167.26 425.529,172.176 429.981,183.794 C433.472,192.902 436.461,238.682 436.461,238.682 L480.341,220.346 L447.479,153.293 L412.225,167.26" id="Fill-15" fill="#5B88AB"></path>
            <path d="M387.509,124.373 C399.208,121.458 406.378,107.059 409.866,97.762 L382.88,89.718 L368.099,106.221 C368.099,106.221 363.82,115.625 361.155,123.138 C365.088,124.8 374.439,127.63 387.509,124.373" id="Fill-16" fill="#F3B799"></path>
            <path d="M375.614,97.83 L368.099,106.221 C368.099,106.221 366.121,110.569 364.018,115.712 C368.989,115.899 374.443,115.354 378.549,112.929 C388.423,107.097 387.335,100.512 387.335,100.512 L375.614,97.83" id="Fill-17" fill="#E88476"></path>
            <path d="M372.256,63.852 C372.256,63.852 362.556,61.08 361.17,66.854 C359.785,72.628 361.863,83.136 360.016,89.372 C358.168,95.607 356.782,98.148 356.782,98.148 C356.782,98.148 362.902,108.194 369.254,109.811 C375.605,111.428 381.379,111.081 385.651,106.693 C389.924,102.305 389.231,92.028 387.961,86.369 C386.69,80.711 372.256,63.852 372.256,63.852" id="Fill-18" fill="#F3B799"></path>
            <path d="M370.582,86.658 C370.582,86.658 374.566,93.298 374.796,93.298 C375.027,93.298 376.014,90.988 375.694,90.18 C375.374,89.372 372.718,88.852 370.582,86.658" id="Fill-19" fill="#E88476"></path>
            <path d="M367.637,100.226 L382.88,89.718 C382.88,89.718 387.961,99.418 381.032,104.499 C374.104,109.58 367.637,100.226 367.637,100.226" id="Fill-20" fill="#DBDBDB"></path>
            <path d="M365.599,90.7 C365.599,91.763 364.737,92.625 363.673,92.625 C362.61,92.625 361.748,91.763 361.748,90.7 C361.748,89.636 362.61,88.774 363.673,88.774 C364.737,88.774 365.599,89.636 365.599,90.7" id="Fill-21" fill="#33345A"></path>
            <path d="M378.85,82.351 C378.85,83.415 377.988,84.277 376.924,84.277 C375.861,84.277 374.999,83.415 374.999,82.351 C374.999,81.288 375.861,80.426 376.924,80.426 C377.988,80.426 378.85,81.288 378.85,82.351" id="Fill-22" fill="#33345A"></path>
            <path d="M370.582,76.669 C370.582,76.669 371.713,73.357 376.157,73.811 M363.673,80.426 C363.673,80.426 361.353,79.614 359.082,81.519" id="Stroke-23" stroke="#33345A" stroke-width="2.771" stroke-linecap="round"></path>
            <path d="M388.876,194.408 L355.55,209.731 C353.984,210.451 352.13,209.766 351.41,208.199 L330.373,162.446 C329.653,160.88 330.338,159.027 331.904,158.306 L365.231,142.983 C366.797,142.263 368.65,142.949 369.37,144.515 L390.408,190.268 C391.128,191.834 390.442,193.688 388.876,194.408" id="Fill-24" fill="#33345A"></path>
            <path d="M388.094,191.933 L354.18,207.527 C353.791,207.706 353.331,207.536 353.152,207.147 L332.305,161.81 C332.126,161.421 332.297,160.96 332.686,160.781 L366.6,145.187 C366.989,145.008 367.45,145.179 367.629,145.568 L388.475,190.905 C388.654,191.294 388.484,191.754 388.094,191.933" id="Fill-25" fill="#FFFCFC"></path>
            <polyline id="Fill-26" fill="#E36B71" points="354.098 175.639 349.692 177.666 348.171 174.358 352.577 172.332 354.098 175.639"></polyline>
            <polyline id="Fill-27" fill="#5AA65C" points="361.223 172.363 356.816 174.39 353.016 166.124 357.423 164.098 361.223 172.363"></polyline>
            <polyline id="Fill-28" fill="#619AC6" points="368.348 169.087 363.941 171.114 357.066 156.16 361.472 154.134 368.348 169.087"></polyline>
            <path d="M359.754,194.356 C357.904,195.206 355.716,194.397 354.866,192.548 C354.016,190.698 354.826,188.51 356.675,187.66 C358.524,186.81 360.712,187.62 361.562,189.469 C362.412,191.318 361.603,193.506 359.754,194.356 Z M355.752,185.654 C352.795,187.013 351.5,190.513 352.859,193.47 C354.219,196.427 357.719,197.723 360.676,196.363 C363.633,195.003 364.929,191.503 363.569,188.546 C362.209,185.589 358.709,184.294 355.752,185.654 Z" id="Fill-29" fill="#619AC6"></path>
            <path d="M355.752,185.654 L356.675,187.66 C358.524,186.81 360.712,187.62 361.562,189.469 C361.987,190.393 361.997,191.402 361.67,192.287 L363.741,193.053 C364.265,191.639 364.249,190.025 363.569,188.546 C362.209,185.589 358.709,184.294 355.752,185.654" id="Fill-30" fill="#5AA65C"></path>
            <path d="M374.468,187.59 C372.619,188.441 370.431,187.631 369.581,185.782 C368.73,183.933 369.54,181.744 371.389,180.894 C373.238,180.044 375.427,180.854 376.277,182.703 C377.127,184.552 376.317,186.74 374.468,187.59 Z M370.467,178.888 C367.509,180.247 366.214,183.747 367.574,186.704 C368.934,189.662 372.433,190.957 375.391,189.597 C378.348,188.237 379.643,184.737 378.283,181.78 C376.924,178.823 373.424,177.528 370.467,178.888 Z" id="Fill-31" fill="#619AC6"></path>
            <path d="M370.467,178.888 L371.389,180.894 C372.314,180.469 373.323,180.459 374.208,180.786 L374.974,178.715 C373.559,178.192 371.945,178.208 370.467,178.888" id="Fill-32" fill="#E36B71"></path>
            <path d="M431.957,140.989 L402.402,160.043 C402.402,160.043 399.425,158.466 396.868,156.83 C394.312,155.193 391.194,149.073 389.693,149.073 C388.192,149.073 386.46,151.581 387.961,155.35 C389.462,159.119 391.425,162.624 391.425,162.624 C391.425,162.624 379.3,169.839 379.531,172.332 C379.762,174.824 384.287,177.48 387.509,178.75 C390.732,180.02 393.504,186.315 396.275,186.517 C399.046,186.718 411.518,172.861 411.518,172.861 L444.922,158.657 L431.957,140.989" id="Fill-33" fill="#F3B799"></path>
            <path d="M431.957,140.989 L418.081,149.935 C419.651,152.2 422.89,156.714 424.682,158.08 C426.695,159.614 431.489,160.596 434.713,162.998 L444.922,158.657 L431.957,140.989" id="Fill-34" fill="#E88476"></path>
            <polygon id="Fill-35" fill="#BC8B55" points="252.323 337.529 264.341 337.529 264.341 258.89 252.323 258.89"></polygon>
            <polygon id="Fill-36" fill="#BC8B55" points="345.136 337.529 357.154 337.529 357.154 258.89 345.136 258.89"></polygon>
            <path d="M344.348,197.599 C344.348,197.599 365.596,209.985 369.291,224.885 C371.984,235.743 367.809,259.199 365.345,271.127 C364.468,275.375 360.723,278.41 356.385,278.41 L305.374,278.41 L344.348,197.599" id="Fill-37" fill="#E36B71"></path>
            <path d="M267.27,197.599 C267.27,197.599 246.022,209.985 242.327,224.885 C239.634,235.743 243.81,259.199 246.273,271.127 C247.15,275.375 250.896,278.41 255.233,278.41 L306.244,278.41 L267.27,197.599" id="Fill-38" fill="#E36B71"></path>
            <polygon id="Fill-39" fill="#E36B71" points="263.977 278.41 344.348 278.41 344.348 259.646 263.977 259.646"></polygon>
            <path d="M314.517,337.529 C314.517,337.529 316.942,334.238 314.517,327.656 C312.092,321.074 311.399,320.208 311.399,320.208 L283.685,320.208 C283.685,320.208 277.969,324.365 276.41,328.869 C274.851,333.372 276.41,337.529 276.41,337.529 L314.517,337.529" id="Fill-40" fill="#4D4D66"></path>
            <path d="M314.517,337.529 L276.41,337.529 C276.41,337.529 275.578,335.296 275.743,332.333 L315.561,332.333 C315.783,335.791 314.517,337.529 314.517,337.529" id="Fill-41" fill="#D1D0D2"></path>
            <polyline id="Fill-42" fill="#FFFCFC" points="221.078 193.883 228.334 154.681 195.442 147.235 185.742 199.599 219.172 206.029 221.078 193.883"></polyline>
            <polyline id="Fill-43" fill="#0A5065" points="291.773 265.508 332.454 265.508 332.454 233.2 268.711 233.2 291.773 265.508"></polyline>
            <path d="M285.256,156.642 C285.256,156.642 264.918,165.843 262.658,170.423 C260.397,175.003 254.849,205.285 254.849,205.285 L224.811,194.749 L219.172,215.535 L269.404,230.07 C269.404,230.07 281.183,246.96 305.433,243.545 C329.683,240.131 335.226,230.07 335.226,230.07 C335.226,230.07 357.397,235.281 359.129,226.62 C360.861,217.96 339.729,177.622 334.533,170.423 C329.336,163.224 310.802,156.815 310.802,156.815 L285.256,156.642" id="Fill-44" fill="#BC8B55"></path>
            <path d="M270.27,185.049 C270.27,185.049 274.601,226.794 273.735,233.895 C272.869,240.997 265.94,235.454 265.94,235.454 C265.94,235.454 271.829,201.678 270.27,185.049" id="Fill-45" fill="#85653F"></path>
            <path d="M277.372,112.149 C277.372,112.149 274.254,110.071 275.525,105.913 C276.795,101.756 280.952,102.68 280.952,102.68 C280.952,102.68 281.298,97.137 284.994,96.098 C288.689,95.059 291.877,96.9 291.877,96.9 C291.877,96.9 295.155,93.327 298.966,93.904 C302.777,94.481 304.855,97.484 304.855,97.484 C304.855,97.484 311.068,94.366 314.659,98.177 C318.251,101.987 317.327,106.953 317.327,106.953 C317.327,106.953 322.292,107.992 323.909,114.228 C325.526,120.463 322.177,123.812 322.177,123.812 C322.177,123.812 324.791,126.584 324.35,130.048 C323.909,133.512 320.611,135.416 320.611,135.416 C320.611,135.416 321.599,137.9 319.059,140.787 C316.518,143.674 312.823,142.866 312.823,142.866 C312.823,142.866 311.431,145.815 307.165,145.291 C301.424,144.586 277.372,112.149 277.372,112.149" id="Fill-46" fill="#664555"></path>
            <path d="M277.372,112.149 C277.372,112.149 275.64,129.644 276.333,135.533 C277.026,141.422 278.585,144.367 280.663,147.138 C282.742,149.91 285.256,151.361 285.256,151.361 L285.256,165.053 C285.256,165.053 291.749,168.94 299.024,165.996 C306.299,163.051 310.802,156.815 310.802,156.815 L309.07,142.115 C309.07,142.115 314.267,139.863 314.613,136.745 C314.96,133.628 313.302,130.683 311.359,131.549 C309.417,132.415 307.708,135.48 307.708,135.48 C307.708,135.48 309.199,119.362 307.511,116.999 C304.047,112.149 277.372,112.149 277.372,112.149" id="Fill-47" fill="#F3B799"></path>
            <path d="M285.256,165.053 L279.451,171.538 C279.451,171.538 277.746,160.626 278.598,156.642 C279.451,152.658 285.256,151.361 285.256,151.361 L285.256,165.053" id="Fill-48" fill="#FFFCFC"></path>
            <path d="M295.414,162.531 L294.693,167.032 C294.693,167.032 299.554,167.148 301.569,164.782 C303.585,162.416 295.414,162.531 295.414,162.531" id="Fill-49" fill="#D1D0D2"></path>
            <path d="M295.414,162.531 L305.779,170.423 L315.334,158.552 C315.334,158.552 313.92,149.54 312.361,148.155 C310.802,146.769 309.554,146.223 309.554,146.223 L310.044,150.375 L295.414,162.531" id="Fill-50" fill="#FFFCFC"></path>
            <path d="M328.843,230.331 L296.845,237.52 C294.854,237.967 292.877,236.716 292.43,234.725 L281.768,187.274 C281.321,185.283 282.572,183.306 284.563,182.859 L316.561,175.669 C318.552,175.222 320.529,176.473 320.976,178.464 L331.638,225.915 C332.085,227.906 330.834,229.883 328.843,230.331" id="Fill-51" fill="#33345A"></path>
            <path d="M309.59,204.825 C309.59,207.312 307.574,209.329 305.086,209.329 C302.599,209.329 300.583,207.312 300.583,204.825 C300.583,202.338 302.599,200.322 305.086,200.322 C307.574,200.322 309.59,202.338 309.59,204.825" id="Fill-52" fill="#4D4D66"></path>
            <path d="M333.262,206.874 C333.262,206.874 328.339,201.793 325.373,199.83 C322.408,197.867 310.514,194.518 308.32,194.749 C306.126,194.98 305.664,198.388 307.858,200.322 C310.052,202.255 321.368,205.373 321.368,205.373 C321.368,205.373 320.156,205.488 316.259,205.142 C312.361,204.795 305.952,203.67 304.74,204.969 C303.527,206.268 303.874,209.039 307.165,210.165 C310.456,211.291 322.581,213.023 322.581,213.023 C322.581,213.023 310.976,215.275 309.157,215.621 C307.338,215.968 307.338,218.999 310.283,219.692 C313.227,220.385 321.801,219.692 321.801,219.692 C321.801,219.692 315.717,223.205 313.633,224.408 C311.549,225.611 312.525,228.732 315.951,228.152 C319.376,227.573 325.439,226.447 327.777,226.101 C330.116,225.754 334.879,224.022 335.832,222.117 C336.784,220.211 336.323,210.685 333.262,206.874" id="Fill-53" fill="#F3B799"></path>
            <path d="M322.408,320.208 C322.408,320.208 324.874,250.23 325.373,238.797 C325.872,227.365 328.297,211.43 345.272,211.083 C362.247,210.737 360.023,235.333 359.23,245.033 C358.436,254.733 350.122,320.208 350.122,320.208 L322.408,320.208" id="Fill-54" fill="#26758E"></path>
            <path d="M311.322,320.208 C311.322,320.208 296.132,253.151 292.615,241.049 C289.098,228.948 273.563,207.484 258.65,216.265 C243.736,225.045 259.242,256.128 263.977,267.209 C268.711,278.29 288.236,320.208 288.236,320.208 L311.322,320.208" id="Fill-55" fill="#26758E"></path>
            <path d="M330.408,204.068 C330.408,204.068 336.265,201.199 338.69,202.564 C341.115,203.929 343.193,207.047 345.445,209.472 C347.697,211.897 350.171,213.325 350.171,213.325 C350.171,213.325 343.794,203.929 340.289,199.253 C336.784,194.576 325.373,181.065 325.373,181.065 L330.408,204.068" id="Fill-56" fill="#85653F"></path>
            <path d="M294.578,156.705 C305.374,153.974 305.374,144.489 305.374,144.489 C305.374,144.489 303.094,147.138 300.746,149.35 C298.398,151.562 295.127,152.594 291.056,152.854 C286.986,153.114 285.256,151.361 285.256,151.361 L285.256,156.209 C286.992,156.945 290.935,157.627 294.578,156.705" id="Fill-57" fill="#E88476"></path>
            <path d="M290.767,127.45 L289.728,133.281 C289.728,133.281 287.65,132.762 287.765,131.722 C287.88,130.683 290.767,127.45 290.767,127.45" id="Fill-58" fill="#E88476"></path>
            <path d="M284.763,135.937 L302.43,136.976 C302.43,136.976 300.467,148.178 291.807,147.369 C283.146,146.561 284.763,135.937 284.763,135.937" id="Fill-59" fill="#DBDBDB"></path>
            <path d="M287.245,118.818 C287.245,118.818 285.167,114.989 280.923,117.692 M295.414,119.597 C295.414,119.597 300.583,116.999 302.921,121.243" id="Stroke-60" stroke="#664555" stroke-width="2.771" stroke-linecap="round"></path>
            <path d="M286.986,125.963 C286.986,127.23 285.958,128.258 284.69,128.258 C283.423,128.258 282.395,127.23 282.395,125.963 C282.395,124.695 283.423,123.668 284.69,123.668 C285.958,123.668 286.986,124.695 286.986,125.963" id="Fill-61" fill="#664555"></path>
            <path d="M299.168,127.45 C299.168,128.717 298.14,129.745 296.873,129.745 C295.605,129.745 294.578,128.717 294.578,127.45 C294.578,126.182 295.605,125.155 296.873,125.155 C298.14,125.155 299.168,126.182 299.168,127.45" id="Fill-62" fill="#664555"></path>
            <path d="M224.811,194.749 C224.811,194.749 220.529,182.624 219.418,182.624 C218.306,182.624 216.228,185.222 217.267,188.687 C218.306,192.151 219.172,195.442 219.172,195.442 C219.172,195.442 217.787,196.541 217.96,200.322 C218.133,204.103 216.75,205.563 216.75,205.563 L210.487,204.359 L219.976,212.573 L224.811,194.749" id="Fill-63" fill="#F3B799"></path>
            <path d="M217.972,200.811 C217.972,200.811 217.962,200.808 217.959,200.807 C217.993,204.21 216.75,205.563 216.75,205.563 L210.487,204.359 L216.7,209.737 C218.346,209.632 219.447,208.85 219.807,208.202 C220.385,207.163 219.23,206.354 218.537,204.507 C217.844,202.659 217.972,200.811 217.972,200.811" id="Fill-64" fill="#E88476"></path>
            <path d="M319.29,337.529 C319.29,337.529 316.865,334.238 319.29,327.656 C321.715,321.074 322.408,320.208 322.408,320.208 L350.122,320.208 C350.122,320.208 355.838,324.365 357.397,328.869 C358.956,333.372 357.397,337.529 357.397,337.529 L319.29,337.529" id="Fill-65" fill="#4D4D66"></path>
            <path d="M319.29,337.529 L357.397,337.529 C357.397,337.529 358.229,335.296 358.064,332.333 L318.246,332.333 C318.024,335.791 319.29,337.529 319.29,337.529" id="Fill-66" fill="#D1D0D2"></path>
            <path d="M265.29,297.69 L246.237,298.96 L255.113,334.895 C255.495,336.442 256.883,337.529 258.477,337.529 L282.727,337.529 L265.29,297.69" id="Fill-67" fill="#1D1E39"></path>
            <polyline id="Fill-68" fill="#E88476" points="237.922 264.605 249.008 298.96 267.632 297.69 241.849 249.768 237.922 264.605"></polyline>
            <path d="M144.041,267.782 L124.123,333.519 C123.519,335.516 125.013,337.529 127.099,337.529 C128.34,337.529 129.462,336.791 129.954,335.651 L157.205,272.401 L144.041,267.782" id="Fill-69" fill="#BC8B55"></path>
            <path d="M223.508,267.782 L243.425,333.519 C244.03,335.516 242.536,337.529 240.45,337.529 C239.209,337.529 238.086,336.791 237.595,335.651 L210.344,272.401 L223.508,267.782" id="Fill-70" fill="#BC8B55"></path>
            <path d="M225.183,273.311 C223.766,272.59 222.547,271.49 221.709,270.076 L220.894,268.699 L210.344,272.401 L216.414,286.489 L229.031,286.489 C229.079,286.489 229.124,286.476 229.172,286.475 L225.183,273.311" id="Fill-71" fill="#9C7448"></path>
            <path d="M140.711,278.772 C144.229,281.073 148.063,282.906 152.117,284.21 L157.205,272.401 L144.041,267.782 L140.711,278.772" id="Fill-72" fill="#9C7448"></path>
            <path d="M255.475,231.522 C255.475,231.522 258.883,231.326 261.105,234.773 C263.327,238.22 286.076,293.879 286.076,293.879 L265.29,297.69 C265.29,297.69 246.617,272.07 243.656,260.977 C240.694,249.883 255.475,231.522 255.475,231.522" id="Fill-73" fill="#F3B799"></path>
            <path d="M180.924,91.597 C180.924,91.597 182.007,100.535 182.82,103.786 C183.633,107.036 188.237,113.672 188.237,115.027 C188.237,116.381 182.007,115.704 182.007,115.704 C182.007,115.704 178.486,125.049 177.674,127.893 C176.861,130.737 175.1,132.363 171.444,132.904 C167.787,133.446 161.015,131.55 161.015,131.55 L157.494,154.845 L129.323,144.281 L140.971,97.962 L180.924,91.597" id="Fill-74" fill="#F3B799"></path>
            <polygon id="Fill-75" fill="#4D4D66" points="156.166 106.462 177.99 106.462 177.99 104.557 156.166 104.557"></polygon>
            <path d="M157.35,129.434 C156.139,127.758 155.462,124.914 155.462,124.914 C155.462,124.914 153.234,125.092 151.399,124.033 C149.564,122.974 145.305,126.81 145.305,126.81 L159.352,142.552 L161.015,131.55 C161.015,131.55 158.56,131.11 157.35,129.434" id="Fill-76" fill="#E88476"></path>
            <path d="M132.709,137.441 C132.709,137.441 141.558,142.55 148.745,146.7 C155.933,150.849 158.103,155.928 162.369,161.21 C166.636,166.492 182.481,181.729 183.904,188.433 C185.326,195.137 179.637,205.904 179.637,205.904 L184.132188,220.937 C184.132188,220.937 135.96,210.644 132.303,205.768 C128.646,200.893 122.822,178.885 121.197,168.727 C119.572,158.569 126.208,137.441 126.208,137.441 L132.709,137.441" id="Fill-77" fill="#E36B71"></path>
            <path d="M158.205,105.648 L158.205,115.298 C158.205,115.298 155.462,111.641 152.415,112.961 C149.368,114.282 148.555,118.142 149.368,120.58 C150.18,123.018 151.399,124.033 151.399,124.033 C151.399,124.033 146.117,134.191 136.772,140.489 C127.427,146.786 122.551,148.208 120.114,148.208 C118.291,148.208 114.482,141.624 112.675,138.3 C112.102,137.245 112.417,135.93 113.41,135.255 C115.84,133.607 120.239,130.613 122.653,128.909 C126.107,126.471 127.224,124.643 127.224,124.643 C127.224,124.643 123.466,127.081 119.809,129.62 C117.459,131.252 114.271,132.464 112.292,133.122 C111.256,133.467 110.133,132.981 109.669,131.993 C109.209,131.018 109.538,129.845 110.449,129.268 C113.446,127.369 119.983,122.706 124.448,115.704 C130.407,106.359 136.23,86.45 149.097,80.22 C161.963,73.99 182.82,76.97 186.477,83.064 C190.134,89.159 175.303,100.603 158.205,105.648" id="Fill-78" fill="#33345A"></path>
            <polyline id="Fill-79" fill="#33345A" points="198.43 227.596 255.475 231.522 240.925 267.782 213.903 267.782 198.43 227.596"></polyline>
            <path d="M286.942,292.321 L298.201,316.513 L321.682,326.39 C325.087,327.822 327.301,331.155 327.301,334.848 L327.301,337.529 L276.492,337.529 C274.845,337.529 273.419,336.389 273.056,334.784 L264.67,297.69 L286.942,292.321" id="Fill-80" fill="#33345A"></path>
            <path d="M269.47,229.74 L202.736,229.74 L202.736,220.802 L273.599,220.802 L273.599,225.611 C273.599,227.892 271.75,229.74 269.47,229.74" id="Fill-81" fill="#EEEEEE"></path>
            <path d="M265.467,223.324 L287.462,160.333 L289.95,161.202 C293.237,162.35 294.97,165.944 293.823,169.23 L275.032,223.045 C274.41,224.826 272.462,225.766 270.681,225.144 L265.467,223.324" id="Fill-82" fill="#EEEEEE"></path>
            <path d="M141.851,198.793 L163.25,191.48 L174.085,218.296 C174.085,218.296 225.478,206.742 229.27,206.336 C233.062,205.929 247.084,220.802 247.084,220.802 L228.123,220.802 L221.893,216.739 L163.791,241.049 L141.851,198.793" id="Fill-83" fill="#F3B799"></path>
            <polyline id="Fill-84" fill="#E88476" points="163.25 191.48 141.851 198.793 145.511 205.843 164.99 195.787 163.25 191.48"></polyline>
            <polyline id="Fill-85" fill="#664555" points="141.512 197.371 126.208 168.727 140.023 220.937 151.212 216.053 141.512 197.371"></polyline>
            <path d="M110.708,192.909 L123.445,244.112 C128.693,265.211 147.64,280.022 169.382,280.022 L231.802,280.022 C235.182,280.022 237.922,277.282 237.922,273.902 C237.922,270.522 235.182,267.782 231.802,267.782 C228.796,267.782 226.013,266.196 224.481,263.609 L206.643,233.494 C202.526,226.542 196.138,221.222 188.555,218.43 L143.496,201.837 C136.016,199.083 129.748,193.779 125.793,186.858 C123.468,182.79 118.215,181.492 114.263,184.008 C111.288,185.903 109.856,189.487 110.708,192.909" id="Fill-86" fill="#619AC6"></path>
            <path d="M177.827,127.383 C178.54,125.085 180.279,120.346 181.276,117.663 L166.674,117.663 C166.674,117.663 169.683,127.739 177.827,127.383" id="Fill-87" fill="#DBDBDB"></path>
            <polygon id="Fill-88" fill="#4D4D66" points="177.99 111.774 181.276 111.774 181.276 97.34 177.99 97.34"></polygon>
            <path d="M496.284,267.782 L516.201,333.519 C516.806,335.516 515.312,337.529 513.226,337.529 C511.985,337.529 510.863,336.791 510.371,335.651 L483.12,272.401 L496.284,267.782" id="Fill-89" fill="#BC8B55"></path>
            <path d="M416.817,267.782 L396.9,333.519 C396.295,335.516 397.789,337.529 399.875,337.529 C401.116,337.529 402.239,336.791 402.73,335.651 L429.981,272.401 L416.817,267.782" id="Fill-90" fill="#BC8B55"></path>
            <path d="M415.148,273.311 C416.565,272.59 417.784,271.49 418.622,270.076 L419.437,268.699 L429.987,272.401 L423.917,286.489 L411.3,286.489 C411.252,286.489 411.207,286.476 411.159,286.475 L415.148,273.311" id="Fill-91" fill="#9C7448"></path>
            <path d="M499.62,278.772 C496.102,281.074 492.268,282.906 488.214,284.21 L483.126,272.401 L496.29,267.782 L499.62,278.772" id="Fill-92" fill="#9C7448"></path>
            <path d="M447.479,226.27 C447.479,226.27 387.582,229.727 383.992,233.538 C380.401,237.349 366.251,320.208 366.251,320.208 L395.693,320.208 L404.794,269.056 L439.001,260.622 L447.479,226.27" id="Fill-93" fill="#33345A"></path>
            <path d="M417.984,196.872 L395.693,195.494 C395.693,195.494 371.679,184.293 371.332,185.448 C370.986,186.602 370.865,188.26 372.943,190.338 C375.022,192.417 379.877,195.379 379.877,195.379 C379.877,195.379 377.914,203.231 378.492,205.425 C379.069,207.619 381.494,210.044 383.457,211.776 C385.42,213.508 387.73,214.086 391.656,212.7 C395.582,211.314 399.582,209.005 399.582,209.005 L422.603,216.511 L417.984,196.872" id="Fill-94" fill="#F3B799"></path>
            <path d="M409.67,124.361 C409.67,124.361 410.709,131.982 412.095,134.292 C413.481,136.601 411.98,142.26 412.095,143.414 C412.211,144.569 417.753,144.107 418.793,144.569 C419.832,145.031 422.834,150.458 423.989,153.807 C425.144,157.156 429.186,157.387 431.38,156.117 C433.574,154.847 437.962,152.075 437.962,152.075 L440.964,155.308 L456.553,143.992 L439.347,112.929 L413.365,115.238 L409.67,124.361" id="Fill-95" fill="#F3B799"></path>
            <path d="M448.268,138.507 L453.695,138.831 C453.695,138.831 457.968,133.397 457.708,123.437 C457.448,113.477 450.953,105.509 450.953,105.509 C450.953,105.509 445.301,94.769 434.226,95.852 C423.152,96.935 418.302,101.526 410.594,104.73 C402.886,107.934 396.304,106.029 395.957,107.761 C395.611,109.493 394.927,114.743 399.162,119.8 C402.566,123.865 408.227,124.245 409.67,124.361 C411.114,124.476 423.152,118.067 425.577,118.414 C428.002,118.76 427.482,122.311 431.639,123.177 C433.622,123.59 435.289,123.885 436.491,124.081 C437.8,124.293 438.901,125.159 439.429,126.376 L441.101,130.236 C441.418,130.968 442.429,131.053 442.851,130.376 C443.701,129.014 445.095,127.551 446.796,128.634 C449.654,130.452 450.606,135.302 448.268,138.507" id="Fill-96" fill="#664555"></path>
            <path d="M456.553,143.992 C456.553,143.992 463.078,144.916 467.235,147.687 C471.392,150.458 486.808,174.535 491.138,180.771 C495.469,187.007 505.342,211.43 505.342,211.43 L447.479,220.346 L430.225,218.589 L439.483,157.566 C439.618,156.676 440.105,155.877 440.835,155.35 L456.553,143.992" id="Fill-97" fill="#FFFCFC"></path>
            <path d="M433.52,196.872 C433.52,196.872 431.527,193.306 430.225,193.762 C428.923,194.217 424.567,196.023 422.488,195.297 C420.409,194.57 417.984,196.872 417.984,196.872 C417.984,196.872 417.984,218.012 419.948,218.474 C421.911,218.936 424.22,217.203 427.223,217.896 C430.225,218.589 430.225,218.589 430.225,218.589 L433.52,196.872" id="Fill-98" fill="#D9CFCE"></path>
            <path d="M396.868,196.071 C396.868,196.071 389,185.679 387.845,186.14 C386.69,186.602 388.885,196.071 388.885,196.071 L396.868,196.071" id="Fill-99" fill="#F3B799"></path>
            <path d="M395.693,320.208 L395.693,337.529 L335.121,337.529 L335.121,335.74 C335.121,331.679 337.829,328.115 341.741,327.027 L366.251,320.208 L395.693,320.208" id="Fill-100" fill="#1D1E39"></path>
            <polyline id="Fill-101" fill="#E88476" points="437.962 152.075 444.922 148.057 440.835 155.35 437.962 152.075"></polyline>
            <path d="M423.944,153.683 C434.413,149.52 433.574,139.488 433.574,139.488 L420.757,147.091 C421.929,149.034 423.243,151.695 423.944,153.683" id="Fill-102" fill="#DBDBDB"></path>
            <path d="M422.921,131.607 C422.921,132.994 421.797,134.119 420.409,134.119 C419.022,134.119 417.898,132.994 417.898,131.607 C417.898,130.22 419.022,129.095 420.409,129.095 C421.797,129.095 422.921,130.22 422.921,131.607" id="Fill-103" fill="#664555"></path>
            <path d="M414.924,127.248 C414.924,127.248 418.1,123.206 422.199,124.707" id="Stroke-104" stroke="#664555" stroke-width="2.771" stroke-linecap="round"></path>
            <path d="M460.999,167.433 C460.999,167.433 463.078,170.551 463.771,175.574 C464.463,180.598 462.385,187.18 460.999,192.723 C459.613,198.265 455.024,219.184 455.024,219.184 L463.908,217.815 C463.908,217.815 473.817,177.307 460.999,167.433" id="Fill-105" fill="#D9CFCE"></path>
            <path d="M529.617,192.909 L516.88,244.112 C511.632,265.211 492.685,280.022 470.942,280.022 L408.523,280.022 C405.143,280.022 402.402,277.282 402.402,273.902 C402.402,270.522 405.143,267.782 408.523,267.782 C411.529,267.782 414.312,266.196 415.844,263.609 L433.682,233.494 C437.799,226.542 444.187,221.222 451.769,218.43 L496.829,201.837 C504.309,199.083 510.577,193.779 514.532,186.858 C516.856,182.79 522.11,181.492 526.062,184.008 C529.037,185.903 530.469,189.487 529.617,192.909" id="Fill-106" fill="#9ACB8C"></path>
            <path d="M25.888,337.529 L609.734,337.529" id="Stroke-107" stroke="#B5B5B5" stroke-width="2.771" stroke-linecap="round"></path>
            <polyline id="Fill-108" fill="#F4B873" points="72.486 73.94 90.773 63.153 90.971 84.384 72.486 73.94"></polyline>
            <polyline id="Fill-109" fill="#5AA65C" points="403.157 1.391 411.811 20.778 390.694 18.579 403.157 1.391"></polyline>
            <polyline id="Fill-110" fill="#5AA65C" points="13.288 270.733 21.942 290.12 0.824 287.921 13.288 270.733"></polyline>
            <polyline id="Fill-111" fill="#E36B71" points="588.595 206.601 588.972 185.374 607.167 196.313 588.595 206.601"></polyline>
            <polyline id="Fill-112" fill="#E36B71" points="228.636 21.699 229.013 0.471 247.208 11.41 228.636 21.699"></polyline>
            <polyline id="Fill-113" fill="#619AC6" points="21.942 135.769 22.318 114.541 40.514 125.48 21.942 135.769"></polyline>
            <polyline id="Fill-114" fill="#619AC6" points="542.086 99.929 557.6 85.434 562.396 106.117 542.086 99.929"></polyline>
            <path d="M485.144,80.254 C485.144,82.906 482.994,85.056 480.341,85.056 C477.689,85.056 475.539,82.906 475.539,80.254 C475.539,77.602 477.689,75.452 480.341,75.452 C482.994,75.452 485.144,77.602 485.144,80.254" id="Fill-115" fill="#F4B873"></path>
            <path d="M311.505,31.525 C311.505,34.177 309.355,36.327 306.703,36.327 C304.051,36.327 301.901,34.177 301.901,31.525 C301.901,28.873 304.051,26.722 306.703,26.722 C309.355,26.722 311.505,28.873 311.505,31.525" id="Fill-116" fill="#F4B873"></path>
            <path d="M59.789,214.21 C59.789,218.037 56.687,221.139 52.86,221.139 C49.033,221.139 45.931,218.037 45.931,214.21 C45.931,210.384 49.033,207.282 52.86,207.282 C56.687,207.282 59.789,210.384 59.789,214.21" id="Fill-117" fill="#F4B873"></path>
            <path d="M199.775,55.419 C199.775,58.35 197.399,60.727 194.467,60.727 C191.536,60.727 189.16,58.35 189.16,55.419 C189.16,52.488 191.536,50.112 194.467,50.112 C197.399,50.112 199.775,52.488 199.775,55.419" id="Fill-118" fill="#5AA65C"></path>
            <path d="M585.947,292.113 C585.947,295.219 583.43,297.737 580.324,297.737 C577.218,297.737 574.7,295.219 574.7,292.113 C574.7,289.007 577.218,286.489 580.324,286.489 C583.43,286.489 585.947,289.007 585.947,292.113" id="Fill-119" fill="#619AC6"></path>
        </g>
    </g>
</svg>