<?xml version="1.0" encoding="UTF-8"?>
<svg width="910px" height="280px" viewBox="0 0 910 280" version="1.1" xmlns="http://www.w3.org/2000/svg" xmlns:xlink="http://www.w3.org/1999/xlink">
    <title>Group 2</title>
    <g id="Page-1" stroke="none" stroke-width="1" fill="none" fill-rule="evenodd">
        <g id="Artboard-Copy-16" transform="translate(-70.000000, -160.000000)">
            <g id="Group-2" transform="translate(70.000000, 160.000000)">
                <text id="hifive" font-family="Ubuntu-Medium, Ubuntu" font-size="249.6" font-weight="400" fill="#242424">
                    <tspan x="254.976" y="233">hifive</tspan>
                </text>
                <g id="Group" transform="translate(0.000000, 30.720000)">
                    <rect id="Rectangle" fill="#39D090" x="69.12" y="0" width="131.328" height="69.12"></rect>
                    <rect id="Rectangle-Copy-3" fill="#FF9F6A" x="69.12" y="69.12" width="66.816" height="69.12"></rect>
                    <rect id="Rectangle-Copy-4" fill="#6F71FF" x="0" y="138.24" width="69.12" height="69.12"></rect>
                    <path d="M0,0 L69.12,0 L69.12,69.12 C30.9460781,69.12 4.67495713e-15,38.1739219 0,0 L0,0 L0,0 Z" id="Rectangle-Copy" fill="#16866B"></path>
                    <path d="M0,69.12 L69.12,69.12 L69.12,138.24 C30.9460781,138.24 4.67495713e-15,107.293922 0,69.12 L0,69.12 L0,69.12 Z" id="Rectangle-Copy-2" fill="#E45F5F" transform="translate(34.560000, 103.680000) rotate(-270.000000) translate(-34.560000, -103.680000) "></path>
                </g>
            </g>
        </g>
    </g>
</svg>