<svg height="512" viewBox="0 0 512 512" width="512" xmlns="http://www.w3.org/2000/svg"><g id="flat"><path d="m472 79 16 368h-106.12z" fill="#da922a"/><path d="m416 423h-32a8 8 0 0 1 0-16h32a8 8 0 0 1 0 16z" fill="#c38325"/><path d="m456 423h-8a8 8 0 0 1 0-16h8a8 8 0 0 1 0 16z" fill="#c38325"/><path d="m472 79-19.59 80-76.41 312h-352l76.41-312 19.59-80z" fill="#fbd699"/><path d="m280 351-16 32h48l-16.175-32z" fill="#da922a"/><path d="m360 263v4.73a94.21 94.21 0 0 1 -32.85 71.43l-11 9.43a43.266 43.266 0 0 1 -56.3 0l-11-9.43a94.158 94.158 0 0 1 -32.85-71.43v-4.73a72.982 72.982 0 0 1 .44-8 72.007 72.007 0 0 1 143.12 0 72.982 72.982 0 0 1 .44 8z" fill="#fbb540"/><path d="m472 79-19.59 80h-352l19.59-80z" fill="#dc4d41"/><circle cx="160" cy="119" fill="#b94137" r="16"/><circle cx="272" cy="119" fill="#b94137" r="16"/><circle cx="384" cy="119" fill="#b94137" r="16"/><path d="m359.12 255h-143.12a71.587 71.587 0 0 1 11.69-32h119.74a71.587 71.587 0 0 1 11.69 32z" fill="#da922a"/><path d="m357.56 287a93.765 93.765 0 0 1 -13.21 32h-113.58a93.765 93.765 0 0 1 -13.21-32z" fill="#da922a"/><path d="m280 383h16v64h-16z" fill="#c3c3c3"/><path d="m200 375-16 32h48l-16.175-32z" fill="#c7463b"/><path d="m280 287v4.73a94.21 94.21 0 0 1 -32.85 71.43l-11 9.43a43.266 43.266 0 0 1 -56.3 0l-11-9.43a94.158 94.158 0 0 1 -32.85-71.43v-4.73a72.982 72.982 0 0 1 .44-8 72.007 72.007 0 0 1 143.12 0 72.982 72.982 0 0 1 .44 8z" fill="#dc4d41"/><path d="m200 407h16v40h-16z" fill="#cbcbcb"/><path d="m200 359a7.992 7.992 0 0 1 -2.969-.574 61.914 61.914 0 0 1 -9.193-4.6 8 8 0 0 1 8.328-13.663 45.668 45.668 0 0 0 6.807 3.4 8 8 0 0 1 -2.973 15.437z" fill="#f55648"/><path d="m172.933 335a8 8 0 0 1 -7.025-4.16 61.794 61.794 0 0 1 -6.717-39.651l.918-5.5a8 8 0 0 1 15.782 2.63l-.917 5.5a45.719 45.719 0 0 0 4.969 29.339 8 8 0 0 1 -7.01 11.842z" fill="#f55648"/><g fill="#fd9226"><path d="m104 359h16v16h-16z"/><path d="m80 383h16v16h-16z"/><path d="m128 383h16v16h-16z"/><path d="m104 407h16v16h-16z"/></g><path d="m384 183h16v16h-16z" fill="#4799cf"/><path d="m368 199h16v16h-16z" fill="#4799cf"/><path d="m400 199h16v16h-16z" fill="#4799cf"/><path d="m384 215h16v16h-16z" fill="#4799cf"/><path d="m150.425 126.041a48 48 0 1 1 57.575-47.041h-16a32 32 0 1 0 -38.524 31.332 8.071 8.071 0 0 1 6.524 7.86 8 8 0 0 1 -9.575 7.849z" fill="#dbdbdb"/><path d="m262.425 126.041a48 48 0 1 1 57.575-47.041h-16a32 32 0 1 0 -38.524 31.332 8.071 8.071 0 0 1 6.524 7.86 8 8 0 0 1 -9.575 7.849z" fill="#dbdbdb"/><path d="m374.425 126.041a48 48 0 1 1 57.575-47.041h-16a32 32 0 1 0 -38.524 31.332 8.071 8.071 0 0 1 6.524 7.86 8 8 0 0 1 -9.575 7.849z" fill="#dbdbdb"/></g></svg>